<svg width="653" height="326" viewBox="0 0 653 326" fill="none" xmlns="http://www.w3.org/2000/svg">
<path d="M76.7195 4.84918H74.7195V6.84918V146.849V148.849H76.7195H110.32C121.599 148.849 130.416 145.816 136.383 139.413C142.315 133.047 145.12 123.879 145.12 112.249V41.4492C145.12 29.8191 142.315 20.6516 136.383 14.2857C130.416 7.88197 121.599 4.84918 110.32 4.84918H76.7195ZM116.66 122.281L116.637 122.306L116.614 122.332C115.225 123.92 113.11 124.849 109.92 124.849H100.72V28.8492H109.92C113.11 28.8492 115.225 29.7786 116.614 31.3662L116.637 31.392L116.66 31.4171C118.148 33.004 119.12 35.85 119.12 40.4492V113.249C119.12 117.848 118.148 120.694 116.66 122.281ZM157.97 4.84918H155.97V6.84918V146.849V148.849H157.97H179.97H181.97V146.849V6.84918V4.84918H179.97H157.97ZM201.769 141.198L201.777 141.206L201.784 141.214C207.867 147.731 216.6 150.849 227.646 150.849C238.692 150.849 247.425 147.731 253.508 141.214L253.516 141.206L253.523 141.198C259.566 134.579 262.446 125.298 262.446 113.649V67.8492V65.8492H260.446H228.646H226.646V67.8492V87.8492V89.8492H228.646H237.646V115.249C237.646 119.552 236.737 122.406 235.263 124.164C233.846 125.855 231.636 126.849 228.246 126.849C224.856 126.849 222.646 125.855 221.229 124.164C219.755 122.406 218.846 119.552 218.846 115.249V38.6492C218.846 34.2744 219.757 31.3653 221.238 29.573C222.658 27.8538 224.866 26.8492 228.246 26.8492C231.626 26.8492 233.834 27.8538 235.254 29.5729C236.735 31.3653 237.646 34.2744 237.646 38.6492V52.0492V54.0492H239.646H260.446H262.446V52.0492V40.0492C262.446 28.4089 259.57 19.1839 253.516 12.6926C247.436 6.03908 238.701 2.84918 227.646 2.84918C216.592 2.84918 207.856 6.03909 201.776 12.6927C195.723 19.1839 192.846 28.4089 192.846 40.0492V113.649C192.846 125.298 195.726 134.579 201.769 141.198ZM274.571 4.84918H272.571V6.84918V146.849V148.849H274.571H296.571H298.571V146.849V6.84918V4.84918H296.571H274.571ZM305.248 26.8492V28.8492H307.248H328.248V146.849V148.849H330.248H352.248H354.248V146.849V28.8492H375.248H377.248V26.8492V6.84918V4.84918H375.248H307.248H305.248V6.84918V26.8492ZM393.72 4.84918H392.019L391.746 6.5277L368.946 146.528L368.568 148.849H370.92H391.32H393.049L393.299 147.138L397.049 121.449H418.644L422.34 147.134L422.587 148.849H424.32H446.32H448.672L448.294 146.528L425.494 6.5277L425.22 4.84918H423.52H393.72ZM456.993 4.84918H454.993V6.84918V146.849V148.849H456.993H515.193H517.193V146.849V126.849V124.849H515.193H480.993V6.84918V4.84918H478.993H456.993ZM554.574 64.8492H552.574V66.8492V86.8492V88.8492H554.574H598.574H600.574V86.8492V66.8492V64.8492H598.574H554.574ZM400.216 98.4492L407.738 44.2299L415.416 98.4492H400.216Z" fill="white" stroke="white" stroke-width="4"/>
<mask id="path-2-outside-1_69_13" maskUnits="userSpaceOnUse" x="71.2" y="174" width="582" height="152" fill="black">
<rect fill="white" x="71.2" y="174" width="582" height="152"/>
<path d="M75.2 180H108.8C119.733 180 127.933 182.933 133.4 188.8C138.867 194.667 141.6 203.267 141.6 214.6V285.4C141.6 296.733 138.867 305.333 133.4 311.2C127.933 317.067 119.733 320 108.8 320H75.2V180ZM108.4 300C112 300 114.733 298.933 116.6 296.8C118.6 294.667 119.6 291.2 119.6 286.4V213.6C119.6 208.8 118.6 205.333 116.6 203.2C114.733 201.067 112 200 108.4 200H97.2V300H108.4ZM156.45 180H216.45V200H178.45V237H208.65V257H178.45V300H216.45V320H156.45V180ZM258.097 322C247.43 322 239.364 319 233.897 313C228.43 306.867 225.697 298.133 225.697 286.8V278.8H246.497V288.4C246.497 297.467 250.297 302 257.897 302C261.63 302 264.43 300.933 266.297 298.8C268.297 296.533 269.297 292.933 269.297 288C269.297 282.133 267.964 277 265.297 272.6C262.63 268.067 257.697 262.667 250.497 256.4C241.43 248.4 235.097 241.2 231.497 234.8C227.897 228.267 226.097 220.933 226.097 212.8C226.097 201.733 228.897 193.2 234.497 187.2C240.097 181.067 248.23 178 258.897 178C269.43 178 277.364 181.067 282.697 187.2C288.164 193.2 290.897 201.867 290.897 213.2V219H270.097V211.8C270.097 207 269.164 203.533 267.297 201.4C265.43 199.133 262.697 198 259.097 198C251.764 198 248.097 202.467 248.097 211.4C248.097 216.467 249.43 221.2 252.097 225.6C254.897 230 259.897 235.333 267.097 241.6C276.297 249.6 282.63 256.867 286.097 263.4C289.564 269.933 291.297 277.6 291.297 286.4C291.297 297.867 288.43 306.667 282.697 312.8C277.097 318.933 268.897 322 258.097 322ZM303.911 180H325.911V320H303.911V180ZM373.588 322C362.921 322 354.788 319 349.188 313C343.587 306.867 340.788 298.133 340.788 286.8V213.2C340.788 201.867 343.587 193.2 349.188 187.2C354.788 181.067 362.921 178 373.588 178C384.254 178 392.388 181.067 397.988 187.2C403.588 193.2 406.388 201.867 406.388 213.2V225.2H385.588V211.8C385.588 202.6 381.787 198 374.188 198C366.588 198 362.788 202.6 362.788 211.8V288.4C362.788 297.467 366.588 302 374.188 302C381.787 302 385.588 297.467 385.588 288.4V261H374.588V241H406.388V286.8C406.388 298.133 403.588 306.867 397.988 313C392.388 319 384.254 322 373.588 322ZM420.513 180H448.113L469.513 263.8H469.913V180H489.513V320H466.913L440.513 217.8H440.113V320H420.513V180ZM505.864 180H565.864V200H527.864V237H558.064V257H527.864V300H565.864V320H505.864V180ZM578.52 180H611.12C622.454 180 630.72 182.667 635.92 188C641.12 193.2 643.72 201.267 643.72 212.2V220.8C643.72 235.333 638.92 244.533 629.32 248.4V248.8C634.654 250.4 638.387 253.667 640.52 258.6C642.787 263.533 643.92 270.133 643.92 278.4V303C643.92 307 644.054 310.267 644.32 312.8C644.587 315.2 645.254 317.6 646.32 320H623.92C623.12 317.733 622.587 315.6 622.32 313.6C622.054 311.6 621.92 308 621.92 302.8V277.2C621.92 270.8 620.854 266.333 618.72 263.8C616.72 261.267 613.187 260 608.12 260H600.52V320H578.52V180ZM608.52 240C612.92 240 616.187 238.867 618.32 236.6C620.587 234.333 621.72 230.533 621.72 225.2V214.4C621.72 209.333 620.787 205.667 618.92 203.4C617.187 201.133 614.387 200 610.52 200H600.52V240H608.52Z"/>
</mask>
<path d="M75.2 180H108.8C119.733 180 127.933 182.933 133.4 188.8C138.867 194.667 141.6 203.267 141.6 214.6V285.4C141.6 296.733 138.867 305.333 133.4 311.2C127.933 317.067 119.733 320 108.8 320H75.2V180ZM108.4 300C112 300 114.733 298.933 116.6 296.8C118.6 294.667 119.6 291.2 119.6 286.4V213.6C119.6 208.8 118.6 205.333 116.6 203.2C114.733 201.067 112 200 108.4 200H97.2V300H108.4ZM156.45 180H216.45V200H178.45V237H208.65V257H178.45V300H216.45V320H156.45V180ZM258.097 322C247.43 322 239.364 319 233.897 313C228.43 306.867 225.697 298.133 225.697 286.8V278.8H246.497V288.4C246.497 297.467 250.297 302 257.897 302C261.63 302 264.43 300.933 266.297 298.8C268.297 296.533 269.297 292.933 269.297 288C269.297 282.133 267.964 277 265.297 272.6C262.63 268.067 257.697 262.667 250.497 256.4C241.43 248.4 235.097 241.2 231.497 234.8C227.897 228.267 226.097 220.933 226.097 212.8C226.097 201.733 228.897 193.2 234.497 187.2C240.097 181.067 248.23 178 258.897 178C269.43 178 277.364 181.067 282.697 187.2C288.164 193.2 290.897 201.867 290.897 213.2V219H270.097V211.8C270.097 207 269.164 203.533 267.297 201.4C265.43 199.133 262.697 198 259.097 198C251.764 198 248.097 202.467 248.097 211.4C248.097 216.467 249.43 221.2 252.097 225.6C254.897 230 259.897 235.333 267.097 241.6C276.297 249.6 282.63 256.867 286.097 263.4C289.564 269.933 291.297 277.6 291.297 286.4C291.297 297.867 288.43 306.667 282.697 312.8C277.097 318.933 268.897 322 258.097 322ZM303.911 180H325.911V320H303.911V180ZM373.588 322C362.921 322 354.788 319 349.188 313C343.587 306.867 340.788 298.133 340.788 286.8V213.2C340.788 201.867 343.587 193.2 349.188 187.2C354.788 181.067 362.921 178 373.588 178C384.254 178 392.388 181.067 397.988 187.2C403.588 193.2 406.388 201.867 406.388 213.2V225.2H385.588V211.8C385.588 202.6 381.787 198 374.188 198C366.588 198 362.788 202.6 362.788 211.8V288.4C362.788 297.467 366.588 302 374.188 302C381.787 302 385.588 297.467 385.588 288.4V261H374.588V241H406.388V286.8C406.388 298.133 403.588 306.867 397.988 313C392.388 319 384.254 322 373.588 322ZM420.513 180H448.113L469.513 263.8H469.913V180H489.513V320H466.913L440.513 217.8H440.113V320H420.513V180ZM505.864 180H565.864V200H527.864V237H558.064V257H527.864V300H565.864V320H505.864V180ZM578.52 180H611.12C622.454 180 630.72 182.667 635.92 188C641.12 193.2 643.72 201.267 643.72 212.2V220.8C643.72 235.333 638.92 244.533 629.32 248.4V248.8C634.654 250.4 638.387 253.667 640.52 258.6C642.787 263.533 643.92 270.133 643.92 278.4V303C643.92 307 644.054 310.267 644.32 312.8C644.587 315.2 645.254 317.6 646.32 320H623.92C623.12 317.733 622.587 315.6 622.32 313.6C622.054 311.6 621.92 308 621.92 302.8V277.2C621.92 270.8 620.854 266.333 618.72 263.8C616.72 261.267 613.187 260 608.12 260H600.52V320H578.52V180ZM608.52 240C612.92 240 616.187 238.867 618.32 236.6C620.587 234.333 621.72 230.533 621.72 225.2V214.4C621.72 209.333 620.787 205.667 618.92 203.4C617.187 201.133 614.387 200 610.52 200H600.52V240H608.52Z" stroke="white" stroke-width="8" mask="url(#path-2-outside-1_69_13)"/>
<path d="M22 321.95L22 307.4H27L27 316.45H36.75V309.35H41.75V316.45H57V321.95H22ZM22 299.512V294.012H57V299.512H22ZM22 284.643V279.143H52V270.093H57V284.643H22ZM22 262.206V256.706H57V262.206H22ZM22 247.337L22 239.237C22 236.503 22.7333 234.453 24.2 233.087C25.6667 231.72 27.8167 231.037 30.65 231.037H34.1C36.9333 231.037 39.0833 231.72 40.55 233.087C42.0167 234.453 42.75 236.503 42.75 239.237V241.837H57V247.337H22ZM37.75 239.237C37.75 238.337 37.5 237.67 37 237.237C36.5 236.77 35.65 236.537 34.45 236.537H30.3C29.1 236.537 28.25 236.77 27.75 237.237C27.25 237.67 27 238.337 27 239.237V241.837H37.75V239.237ZM57.5 202.392C57.5 205.058 56.75 207.075 55.25 208.442C53.7167 209.808 51.5333 210.492 48.7 210.492H46.7V205.292H49.1C51.3667 205.292 52.5 204.342 52.5 202.442C52.5 201.508 52.2333 200.808 51.7 200.342C51.1333 199.842 50.2333 199.592 49 199.592C47.5333 199.592 46.25 199.925 45.15 200.592C44.0167 201.258 42.6667 202.492 41.1 204.292C39.1 206.558 37.3 208.142 35.7 209.042C34.0667 209.942 32.2333 210.392 30.2 210.392C27.4333 210.392 25.3 209.692 23.8 208.292C22.2667 206.892 21.5 204.858 21.5 202.192C21.5 199.558 22.2667 197.575 23.8 196.242C25.3 194.875 27.4667 194.192 30.3 194.192H31.75V199.392H29.95C28.75 199.392 27.8833 199.625 27.35 200.092C26.7833 200.558 26.5 201.242 26.5 202.142C26.5 203.975 27.6167 204.892 29.85 204.892C31.1167 204.892 32.3 204.558 33.4 203.892C34.5 203.192 35.8333 201.942 37.4 200.142C39.4 197.842 41.2167 196.258 42.85 195.392C44.4833 194.525 46.4 194.092 48.6 194.092C51.4667 194.092 53.6667 194.808 55.2 196.242C56.7333 197.642 57.5 199.692 57.5 202.392ZM57.5 177.738C57.5 180.438 56.7333 182.505 55.2 183.938C53.6667 185.372 51.5 186.088 48.7 186.088H30.3C27.5 186.088 25.3333 185.372 23.8 183.938C22.2667 182.505 21.5 180.438 21.5 177.738C21.5 175.038 22.2667 172.972 23.8 171.538C25.3333 170.105 27.5 169.388 30.3 169.388H48.7C51.5 169.388 53.6667 170.105 55.2 171.538C56.7333 172.972 57.5 175.038 57.5 177.738ZM52.5 177.738C52.5 175.838 51.35 174.888 49.05 174.888H29.95C27.65 174.888 26.5 175.838 26.5 177.738C26.5 179.638 27.65 180.588 29.95 180.588H49.05C51.35 180.588 52.5 179.638 52.5 177.738ZM14.55 184.038L14.55 179.138H19.65V184.038H14.55ZM14.55 176.338V171.438H19.65V176.338H14.55ZM22 160.419L22 152.019C22 149.285 22.7333 147.235 24.2 145.869C25.6667 144.502 27.8167 143.819 30.65 143.819H48.35C51.1833 143.819 53.3333 144.502 54.8 145.869C56.2667 147.235 57 149.285 57 152.019V160.419H22ZM52 152.119C52 151.219 51.7333 150.535 51.2 150.069C50.6667 149.569 49.8 149.319 48.6 149.319H30.4C29.2 149.319 28.3333 149.569 27.8 150.069C27.2667 150.535 27 151.219 27 152.119L27 154.919H52V152.119ZM22 134.856L22 119.856H27V129.356H36.25V121.806H41.25V129.356H52L52 119.856H57L57 134.856H22ZM22 111.442L22 103.292C22 100.459 22.6667 98.3922 24 97.0922C25.3 95.7922 27.3167 95.1422 30.05 95.1422H32.2C35.8333 95.1422 38.1333 96.3422 39.1 98.7422H39.2C39.6 97.4089 40.4167 96.4755 41.65 95.9422C42.8833 95.3755 44.5333 95.0922 46.6 95.0922H52.75C53.75 95.0922 54.5667 95.0589 55.2 94.9922C55.8 94.9255 56.4 94.7589 57 94.4922V100.092C56.4333 100.292 55.9 100.426 55.4 100.492C54.9 100.559 54 100.592 52.7 100.592H46.3C44.7 100.592 43.5833 100.859 42.95 101.392C42.3167 101.892 42 102.776 42 104.042V105.942H57V111.442H22ZM37 103.942C37 102.842 36.7167 102.026 36.15 101.492C35.5833 100.926 34.6333 100.642 33.3 100.642H30.6C29.3333 100.642 28.4167 100.876 27.85 101.342C27.2833 101.776 27 102.476 27 103.442V105.942H37V103.942ZM22 86.0262V80.5262H52L52 71.4762H57L57 86.0262H22ZM22 63.5887V58.0887H57V63.5887H22ZM22 48.7195V41.8195L42.95 36.4695V36.3695H22V31.4695H57V37.1195L31.45 43.7195V43.8195H57V48.7195H22ZM22 22.1316L22 13.7316C22 10.9983 22.7333 8.94831 24.2 7.58164C25.6667 6.21497 27.8167 5.53164 30.65 5.53164H48.35C51.1833 5.53164 53.3333 6.21497 54.8 7.58164C56.2667 8.94831 57 10.9983 57 13.7316V22.1316H22ZM52 13.8316C52 12.9316 51.7333 12.2483 51.2 11.7816C50.6667 11.2816 49.8 11.0316 48.6 11.0316H30.4C29.2 11.0316 28.3333 11.2816 27.8 11.7816C27.2667 12.2483 27 12.9316 27 13.8316V16.6316H52V13.8316Z" fill="white"/>
</svg>
