<svg width="619" height="101" viewBox="0 0 619 101" fill="none" xmlns="http://www.w3.org/2000/svg">
<path d="M76.8069 100.316L44.7477 56.4713L12.8303 100.316H0.772583L38.506 49.0689L3.18412 0.668396H15.2418L45.1732 41.3818L74.9628 0.668396H86.3112L51.1311 48.7842L89.0064 100.316H76.8069Z" fill="white"/>
<path d="M202.251 74.8589C181.562 66.3177 169.605 66.3177 146.244 74.8589L134.971 100.316H124.048L169.442 0.668396H179.797L225.191 100.316H214.126L202.251 74.8589ZM198.38 65.1549L174.548 11.6297L150.717 65.1549C169.156 56.1295 180.248 55.5839 198.38 65.1549Z" fill="white"/>
<path d="M355.933 0.668396L311.958 100.316H301.603L257.628 0.668396H268.976L306.993 87.2199L345.294 0.668396H355.933Z" fill="white"/>
<path d="M477.445 91.2058V100.316H407.227V0.668396H475.318V9.77908H417.724V45.2253H469.076V54.1937H417.724V91.2058H477.445Z" fill="white"/>
<path d="M606.809 100.316L584.113 68.2867C581.559 68.5714 578.911 68.7138 576.169 68.7138H549.5V100.316H539.003V0.668396H576.169C588.841 0.668396 598.771 3.70529 605.958 9.77908C613.146 15.8529 616.739 24.2043 616.739 34.8335C616.739 42.6155 614.753 49.2112 610.781 54.6207C606.904 59.9353 601.324 63.7788 594.043 66.1514L618.3 100.316H606.809ZM575.885 59.7455C585.72 59.7455 593.239 57.5627 598.44 53.1972C603.641 48.8316 606.242 42.7104 606.242 34.8335C606.242 26.7667 603.641 20.598 598.44 16.3274C593.239 11.9618 585.72 9.77908 575.885 9.77908H549.5V59.7455H575.885Z" fill="white"/>
</svg>
